<svg xmlns="http://www.w3.org/2000/svg" viewBox="0 0 624 705" font-family="-apple-system, BlinkMacSystemFont, sans-serif">
<rect width="624" height="705" fill="#0d0d14"/>
<text x="312" y="22" text-anchor="middle" font-size="18" font-weight="700" fill="#ff6b3d">世代 5 · 4 玩家 AI 自对弈</text>
<text x="312" y="42" text-anchor="middle" font-size="11" fill="#9c9cb0">种子 42 · 温度 -12°C 氧气 2% 海洋 5/9</text>
<polygon points="184.0,50.0 216.0,68.5 216.0,105.4 184.0,123.9 152.0,105.4 152.0,68.5" fill="#6b2c1a" stroke="#8b3c1a" stroke-width="1"/>
<text x="184.0" y="91.0" text-anchor="middle" font-size="11" fill="#ffd166">S</text>
<text x="184.0" y="120.9" text-anchor="middle" font-size="7" fill="#6c6c80">0,0</text>
<polygon points="248.0,50.0 280.0,68.5 280.0,105.4 248.0,123.9 216.0,105.4 216.0,68.5" fill="#af7ac5" stroke="#d2b4de" stroke-width="2"/>
<text x="248.0" y="92.0" text-anchor="middle" font-size="20" font-weight="bold" fill="#1a1a26">■</text>
<circle cx="269.3" cy="62.3" r="7" fill="#ff6b3d" stroke="#1a1a26" stroke-width="1.5"/><text x="269.3" y="65.3" text-anchor="middle" font-size="9" font-weight="bold" fill="#1a1a26">0</text>
<text x="248.0" y="120.9" text-anchor="middle" font-size="7" fill="#6c6c80">0,1</text>
<polygon points="312.0,50.0 344.0,68.5 344.0,105.4 312.0,123.9 280.0,105.4 280.0,68.5" fill="#6b3d2c" stroke="#8b5d3c" stroke-width="1"/>
<text x="312.0" y="91.0" text-anchor="middle" font-size="11" fill="#ffd166">C</text>
<text x="312.0" y="120.9" text-anchor="middle" font-size="7" fill="#6c6c80">0,2</text>
<polygon points="376.0,50.0 408.0,68.5 408.0,105.4 376.0,123.9 344.0,105.4 344.0,68.5" fill="#6b3d2c" stroke="#8b5d3c" stroke-width="1"/>
<text x="376.0" y="120.9" text-anchor="middle" font-size="7" fill="#6c6c80">0,3</text>
<polygon points="440.0,50.0 472.0,68.5 472.0,105.4 440.0,123.9 408.0,105.4 408.0,68.5" fill="#2e86c1" stroke="#5dade2" stroke-width="2"/>
<text x="440.0" y="92.0" text-anchor="middle" font-size="20" font-weight="bold" fill="#0d3a4a">~</text>
<text x="440.0" y="120.9" text-anchor="middle" font-size="7" fill="#6c6c80">0,4</text>
<polygon points="152.0,105.4 184.0,123.9 184.0,160.9 152.0,179.3 120.0,160.9 120.0,123.9" fill="#58d68d" stroke="#2ecc71" stroke-width="2"/>
<text x="152.0" y="147.4" text-anchor="middle" font-size="20" font-weight="bold" fill="#0d3014">Y</text>
<circle cx="173.3" cy="117.7" r="7" fill="#5dade2" stroke="#1a1a26" stroke-width="1.5"/><text x="173.3" y="120.7" text-anchor="middle" font-size="9" font-weight="bold" fill="#1a1a26">1</text>
<text x="152.0" y="176.3" text-anchor="middle" font-size="7" fill="#6c6c80">1,0</text>
<polygon points="216.0,105.4 248.0,123.9 248.0,160.9 216.0,179.3 184.0,160.9 184.0,123.9" fill="#6b3d2c" stroke="#8b5d3c" stroke-width="1"/>
<text x="216.0" y="146.4" text-anchor="middle" font-size="11" fill="#ffd166">C</text>
<text x="216.0" y="176.3" text-anchor="middle" font-size="7" fill="#6c6c80">1,1</text>
<polygon points="280.0,105.4 312.0,123.9 312.0,160.9 280.0,179.3 248.0,160.9 248.0,123.9" fill="#6b3d2c" stroke="#8b5d3c" stroke-width="1"/>
<text x="280.0" y="176.3" text-anchor="middle" font-size="7" fill="#6c6c80">1,2</text>
<polygon points="344.0,105.4 376.0,123.9 376.0,160.9 344.0,179.3 312.0,160.9 312.0,123.9" fill="#6b3d2c" stroke="#8b5d3c" stroke-width="1"/>
<text x="344.0" y="176.3" text-anchor="middle" font-size="7" fill="#6c6c80">1,3</text>
<polygon points="408.0,105.4 440.0,123.9 440.0,160.9 408.0,179.3 376.0,160.9 376.0,123.9" fill="#6b3d2c" stroke="#8b5d3c" stroke-width="1"/>
<text x="408.0" y="146.4" text-anchor="middle" font-size="11" fill="#ffd166">S</text>
<text x="408.0" y="176.3" text-anchor="middle" font-size="7" fill="#6c6c80">1,4</text>
<polygon points="472.0,105.4 504.0,123.9 504.0,160.9 472.0,179.3 440.0,160.9 440.0,123.9" fill="#2e86c1" stroke="#5dade2" stroke-width="2"/>
<text x="472.0" y="147.4" text-anchor="middle" font-size="20" font-weight="bold" fill="#0d3a4a">~</text>
<text x="472.0" y="176.3" text-anchor="middle" font-size="7" fill="#6c6c80">1,5</text>
<polygon points="120.0,160.9 152.0,179.3 152.0,216.3 120.0,234.8 88.0,216.3 88.0,179.3" fill="#6b2c1a" stroke="#8b3c1a" stroke-width="1"/>
<text x="120.0" y="201.8" text-anchor="middle" font-size="11" fill="#ffd166">C</text>
<text x="120.0" y="231.8" text-anchor="middle" font-size="7" fill="#6c6c80">2,0</text>
<polygon points="184.0,160.9 216.0,179.3 216.0,216.3 184.0,234.8 152.0,216.3 152.0,179.3" fill="#6b3d2c" stroke="#8b5d3c" stroke-width="1"/>
<text x="184.0" y="201.8" text-anchor="middle" font-size="11" fill="#ffd166">Ti</text>
<text x="184.0" y="231.8" text-anchor="middle" font-size="7" fill="#6c6c80">2,1</text>
<polygon points="248.0,160.9 280.0,179.3 280.0,216.3 248.0,234.8 216.0,216.3 216.0,179.3" fill="#6b3d2c" stroke="#8b5d3c" stroke-width="1"/>
<text x="248.0" y="231.8" text-anchor="middle" font-size="7" fill="#6c6c80">2,2</text>
<polygon points="312.0,160.9 344.0,179.3 344.0,216.3 312.0,234.8 280.0,216.3 280.0,179.3" fill="#6b3d2c" stroke="#8b5d3c" stroke-width="1"/>
<text x="312.0" y="201.8" text-anchor="middle" font-size="11" fill="#ffd166">S</text>
<text x="312.0" y="231.8" text-anchor="middle" font-size="7" fill="#6c6c80">2,3</text>
<polygon points="376.0,160.9 408.0,179.3 408.0,216.3 376.0,234.8 344.0,216.3 344.0,179.3" fill="#6b3d2c" stroke="#8b5d3c" stroke-width="1"/>
<text x="376.0" y="201.8" text-anchor="middle" font-size="11" fill="#ffd166">P</text>
<text x="376.0" y="231.8" text-anchor="middle" font-size="7" fill="#6c6c80">2,4</text>
<polygon points="440.0,160.9 472.0,179.3 472.0,216.3 440.0,234.8 408.0,216.3 408.0,179.3" fill="#6b3d2c" stroke="#8b5d3c" stroke-width="1"/>
<text x="440.0" y="201.8" text-anchor="middle" font-size="11" fill="#ffd166">C</text>
<text x="440.0" y="231.8" text-anchor="middle" font-size="7" fill="#6c6c80">2,5</text>
<polygon points="504.0,160.9 536.0,179.3 536.0,216.3 504.0,234.8 472.0,216.3 472.0,179.3" fill="#6b3d2c" stroke="#8b5d3c" stroke-width="1"/>
<text x="504.0" y="231.8" text-anchor="middle" font-size="7" fill="#6c6c80">2,6</text>
<polygon points="88.0,216.3 120.0,234.8 120.0,271.7 88.0,290.2 56.0,271.7 56.0,234.8" fill="#1a3a4a" stroke="#2c5c7a" stroke-width="1.5" stroke-dasharray="3,2"/>
<text x="88.0" y="287.2" text-anchor="middle" font-size="7" fill="#6c6c80">3,0</text>
<polygon points="152.0,216.3 184.0,234.8 184.0,271.7 152.0,290.2 120.0,271.7 120.0,234.8" fill="#1e3a5f" stroke="#5a8cbf" stroke-width="1"/>
<text x="152.0" y="287.2" text-anchor="middle" font-size="7" fill="#6c6c80">3,1</text>
<polygon points="216.0,216.3 248.0,234.8 248.0,271.7 216.0,290.2 184.0,271.7 184.0,234.8" fill="#6b3d2c" stroke="#8b5d3c" stroke-width="1"/>
<text x="216.0" y="257.2" text-anchor="middle" font-size="11" fill="#ffd166">S</text>
<text x="216.0" y="287.2" text-anchor="middle" font-size="7" fill="#6c6c80">3,2</text>
<polygon points="280.0,216.3 312.0,234.8 312.0,271.7 280.0,290.2 248.0,271.7 248.0,234.8" fill="#6b3d2c" stroke="#8b5d3c" stroke-width="1"/>
<text x="280.0" y="257.2" text-anchor="middle" font-size="11" fill="#ffd166">P</text>
<text x="280.0" y="287.2" text-anchor="middle" font-size="7" fill="#6c6c80">3,3</text>
<polygon points="344.0,216.3 376.0,234.8 376.0,271.7 344.0,290.2 312.0,271.7 312.0,234.8" fill="#6b3d2c" stroke="#8b5d3c" stroke-width="1"/>
<text x="344.0" y="257.2" text-anchor="middle" font-size="11" fill="#ffd166">C</text>
<text x="344.0" y="287.2" text-anchor="middle" font-size="7" fill="#6c6c80">3,4</text>
<polygon points="408.0,216.3 440.0,234.8 440.0,271.7 408.0,290.2 376.0,271.7 376.0,234.8" fill="#6b3d2c" stroke="#8b5d3c" stroke-width="1"/>
<text x="408.0" y="257.2" text-anchor="middle" font-size="11" fill="#ffd166">Ti</text>
<text x="408.0" y="287.2" text-anchor="middle" font-size="7" fill="#6c6c80">3,5</text>
<polygon points="472.0,216.3 504.0,234.8 504.0,271.7 472.0,290.2 440.0,271.7 440.0,234.8" fill="#6b3d2c" stroke="#8b5d3c" stroke-width="1"/>
<text x="472.0" y="287.2" text-anchor="middle" font-size="7" fill="#6c6c80">3,6</text>
<polygon points="536.0,216.3 568.0,234.8 568.0,271.7 536.0,290.2 504.0,271.7 504.0,234.8" fill="#6b3d2c" stroke="#8b5d3c" stroke-width="1"/>
<text x="536.0" y="257.2" text-anchor="middle" font-size="11" fill="#ffd166">S</text>
<text x="536.0" y="287.2" text-anchor="middle" font-size="7" fill="#6c6c80">3,7</text>
<polygon points="56.0,271.7 88.0,290.2 88.0,327.1 56.0,345.6 24.0,327.1 24.0,290.2" fill="#1a3a4a" stroke="#2c5c7a" stroke-width="1.5" stroke-dasharray="3,2"/>
<text x="56.0" y="342.6" text-anchor="middle" font-size="7" fill="#6c6c80">4,0</text>
<polygon points="120.0,271.7 152.0,290.2 152.0,327.1 120.0,345.6 88.0,327.1 88.0,290.2" fill="#6b3d2c" stroke="#8b5d3c" stroke-width="1"/>
<text x="120.0" y="312.7" text-anchor="middle" font-size="11" fill="#ffd166">S</text>
<text x="120.0" y="342.6" text-anchor="middle" font-size="7" fill="#6c6c80">4,1</text>
<polygon points="184.0,271.7 216.0,290.2 216.0,327.1 184.0,345.6 152.0,327.1 152.0,290.2" fill="#6b3d2c" stroke="#8b5d3c" stroke-width="1"/>
<text x="184.0" y="312.7" text-anchor="middle" font-size="11" fill="#ffd166">P</text>
<text x="184.0" y="342.6" text-anchor="middle" font-size="7" fill="#6c6c80">4,2</text>
<polygon points="248.0,271.7 280.0,290.2 280.0,327.1 248.0,345.6 216.0,327.1 216.0,290.2" fill="#6b3d2c" stroke="#8b5d3c" stroke-width="1"/>
<text x="248.0" y="312.7" text-anchor="middle" font-size="11" fill="#ffd166">C</text>
<text x="248.0" y="342.6" text-anchor="middle" font-size="7" fill="#6c6c80">4,3</text>
<polygon points="312.0,271.7 344.0,290.2 344.0,327.1 312.0,345.6 280.0,327.1 280.0,290.2" fill="#6b3d2c" stroke="#8b5d3c" stroke-width="1"/>
<text x="312.0" y="342.6" text-anchor="middle" font-size="7" fill="#6c6c80">4,4</text>
<polygon points="376.0,271.7 408.0,290.2 408.0,327.1 376.0,345.6 344.0,327.1 344.0,290.2" fill="#6b3d2c" stroke="#8b5d3c" stroke-width="1"/>
<text x="376.0" y="342.6" text-anchor="middle" font-size="7" fill="#6c6c80">4,5</text>
<polygon points="440.0,271.7 472.0,290.2 472.0,327.1 440.0,345.6 408.0,327.1 408.0,290.2" fill="#6b3d2c" stroke="#8b5d3c" stroke-width="1"/>
<text x="440.0" y="312.7" text-anchor="middle" font-size="11" fill="#ffd166">S</text>
<text x="440.0" y="342.6" text-anchor="middle" font-size="7" fill="#6c6c80">4,6</text>
<polygon points="504.0,271.7 536.0,290.2 536.0,327.1 504.0,345.6 472.0,327.1 472.0,290.2" fill="#6b3d2c" stroke="#8b5d3c" stroke-width="1"/>
<text x="504.0" y="312.7" text-anchor="middle" font-size="11" fill="#ffd166">P</text>
<text x="504.0" y="342.6" text-anchor="middle" font-size="7" fill="#6c6c80">4,7</text>
<polygon points="568.0,271.7 600.0,290.2 600.0,327.1 568.0,345.6 536.0,327.1 536.0,290.2" fill="#2e86c1" stroke="#5dade2" stroke-width="2"/>
<text x="568.0" y="313.7" text-anchor="middle" font-size="20" font-weight="bold" fill="#0d3a4a">~</text>
<text x="568.0" y="342.6" text-anchor="middle" font-size="7" fill="#6c6c80">4,8</text>
<polygon points="88.0,327.1 120.0,345.6 120.0,382.6 88.0,401.0 56.0,382.6 56.0,345.6" fill="#1a3a4a" stroke="#2c5c7a" stroke-width="1.5" stroke-dasharray="3,2"/>
<text x="88.0" y="368.1" text-anchor="middle" font-size="11" fill="#ffd166">S</text>
<text x="88.0" y="398.0" text-anchor="middle" font-size="7" fill="#6c6c80">5,0</text>
<polygon points="152.0,327.1 184.0,345.6 184.0,382.6 152.0,401.0 120.0,382.6 120.0,345.6" fill="#6b3d2c" stroke="#8b5d3c" stroke-width="1"/>
<text x="152.0" y="368.1" text-anchor="middle" font-size="11" fill="#ffd166">P</text>
<text x="152.0" y="398.0" text-anchor="middle" font-size="7" fill="#6c6c80">5,1</text>
<polygon points="216.0,327.1 248.0,345.6 248.0,382.6 216.0,401.0 184.0,382.6 184.0,345.6" fill="#6b3d2c" stroke="#8b5d3c" stroke-width="1"/>
<text x="216.0" y="368.1" text-anchor="middle" font-size="11" fill="#ffd166">C</text>
<text x="216.0" y="398.0" text-anchor="middle" font-size="7" fill="#6c6c80">5,2</text>
<polygon points="280.0,327.1 312.0,345.6 312.0,382.6 280.0,401.0 248.0,382.6 248.0,345.6" fill="#6b3d2c" stroke="#8b5d3c" stroke-width="1"/>
<text x="280.0" y="398.0" text-anchor="middle" font-size="7" fill="#6c6c80">5,3</text>
<polygon points="344.0,327.1 376.0,345.6 376.0,382.6 344.0,401.0 312.0,382.6 312.0,345.6" fill="#6b3d2c" stroke="#8b5d3c" stroke-width="1"/>
<text x="344.0" y="398.0" text-anchor="middle" font-size="7" fill="#6c6c80">5,4</text>
<polygon points="408.0,327.1 440.0,345.6 440.0,382.6 408.0,401.0 376.0,382.6 376.0,345.6" fill="#6b3d2c" stroke="#8b5d3c" stroke-width="1"/>
<text x="408.0" y="368.1" text-anchor="middle" font-size="11" fill="#ffd166">S</text>
<text x="408.0" y="398.0" text-anchor="middle" font-size="7" fill="#6c6c80">5,5</text>
<polygon points="472.0,327.1 504.0,345.6 504.0,382.6 472.0,401.0 440.0,382.6 440.0,345.6" fill="#6b3d2c" stroke="#8b5d3c" stroke-width="1"/>
<text x="472.0" y="368.1" text-anchor="middle" font-size="11" fill="#ffd166">P</text>
<text x="472.0" y="398.0" text-anchor="middle" font-size="7" fill="#6c6c80">5,6</text>
<polygon points="536.0,327.1 568.0,345.6 568.0,382.6 536.0,401.0 504.0,382.6 504.0,345.6" fill="#2e86c1" stroke="#5dade2" stroke-width="2"/>
<text x="536.0" y="369.1" text-anchor="middle" font-size="20" font-weight="bold" fill="#0d3a4a">~</text>
<text x="536.0" y="398.0" text-anchor="middle" font-size="7" fill="#6c6c80">5,7</text>
<polygon points="120.0,382.6 152.0,401.0 152.0,438.0 120.0,456.5 88.0,438.0 88.0,401.0" fill="#6b3d2c" stroke="#8b5d3c" stroke-width="1"/>
<text x="120.0" y="423.5" text-anchor="middle" font-size="11" fill="#ffd166">P</text>
<text x="120.0" y="453.5" text-anchor="middle" font-size="7" fill="#6c6c80">6,0</text>
<polygon points="184.0,382.6 216.0,401.0 216.0,438.0 184.0,456.5 152.0,438.0 152.0,401.0" fill="#6b3d2c" stroke="#8b5d3c" stroke-width="1"/>
<text x="184.0" y="423.5" text-anchor="middle" font-size="11" fill="#ffd166">C</text>
<text x="184.0" y="453.5" text-anchor="middle" font-size="7" fill="#6c6c80">6,1</text>
<polygon points="248.0,382.6 280.0,401.0 280.0,438.0 248.0,456.5 216.0,438.0 216.0,401.0" fill="#6b3d2c" stroke="#8b5d3c" stroke-width="1"/>
<text x="248.0" y="453.5" text-anchor="middle" font-size="7" fill="#6c6c80">6,2</text>
<polygon points="312.0,382.6 344.0,401.0 344.0,438.0 312.0,456.5 280.0,438.0 280.0,401.0" fill="#6b3d2c" stroke="#8b5d3c" stroke-width="1"/>
<text x="312.0" y="423.5" text-anchor="middle" font-size="11" fill="#ffd166">Ti</text>
<text x="312.0" y="453.5" text-anchor="middle" font-size="7" fill="#6c6c80">6,3</text>
<polygon points="376.0,382.6 408.0,401.0 408.0,438.0 376.0,456.5 344.0,438.0 344.0,401.0" fill="#6b3d2c" stroke="#8b5d3c" stroke-width="1"/>
<text x="376.0" y="423.5" text-anchor="middle" font-size="11" fill="#ffd166">S</text>
<text x="376.0" y="453.5" text-anchor="middle" font-size="7" fill="#6c6c80">6,4</text>
<polygon points="440.0,382.6 472.0,401.0 472.0,438.0 440.0,456.5 408.0,438.0 408.0,401.0" fill="#6b3d2c" stroke="#8b5d3c" stroke-width="1"/>
<text x="440.0" y="423.5" text-anchor="middle" font-size="11" fill="#ffd166">P</text>
<text x="440.0" y="453.5" text-anchor="middle" font-size="7" fill="#6c6c80">6,5</text>
<polygon points="504.0,382.6 536.0,401.0 536.0,438.0 504.0,456.5 472.0,438.0 472.0,401.0" fill="#2e86c1" stroke="#5dade2" stroke-width="2"/>
<text x="504.0" y="424.5" text-anchor="middle" font-size="20" font-weight="bold" fill="#0d3a4a">~</text>
<text x="504.0" y="453.5" text-anchor="middle" font-size="7" fill="#6c6c80">6,6</text>
<polygon points="152.0,438.0 184.0,456.5 184.0,493.4 152.0,511.9 120.0,493.4 120.0,456.5" fill="#6b3d2c" stroke="#8b5d3c" stroke-width="1"/>
<text x="152.0" y="478.9" text-anchor="middle" font-size="11" fill="#ffd166">C</text>
<text x="152.0" y="508.9" text-anchor="middle" font-size="7" fill="#6c6c80">7,0</text>
<polygon points="216.0,438.0 248.0,456.5 248.0,493.4 216.0,511.9 184.0,493.4 184.0,456.5" fill="#6b3d2c" stroke="#8b5d3c" stroke-width="1"/>
<text x="216.0" y="508.9" text-anchor="middle" font-size="7" fill="#6c6c80">7,1</text>
<polygon points="280.0,438.0 312.0,456.5 312.0,493.4 280.0,511.9 248.0,493.4 248.0,456.5" fill="#6b3d2c" stroke="#8b5d3c" stroke-width="1"/>
<text x="280.0" y="508.9" text-anchor="middle" font-size="7" fill="#6c6c80">7,2</text>
<polygon points="344.0,438.0 376.0,456.5 376.0,493.4 344.0,511.9 312.0,493.4 312.0,456.5" fill="#6b3d2c" stroke="#8b5d3c" stroke-width="1"/>
<text x="344.0" y="478.9" text-anchor="middle" font-size="11" fill="#ffd166">S</text>
<text x="344.0" y="508.9" text-anchor="middle" font-size="7" fill="#6c6c80">7,3</text>
<polygon points="408.0,438.0 440.0,456.5 440.0,493.4 408.0,511.9 376.0,493.4 376.0,456.5" fill="#6b3d2c" stroke="#8b5d3c" stroke-width="1"/>
<text x="408.0" y="478.9" text-anchor="middle" font-size="11" fill="#ffd166">P</text>
<text x="408.0" y="508.9" text-anchor="middle" font-size="7" fill="#6c6c80">7,4</text>
<polygon points="472.0,438.0 504.0,456.5 504.0,493.4 472.0,511.9 440.0,493.4 440.0,456.5" fill="#1a3a4a" stroke="#2c5c7a" stroke-width="1.5" stroke-dasharray="3,2"/>
<text x="472.0" y="478.9" text-anchor="middle" font-size="11" fill="#ffd166">C</text>
<text x="472.0" y="508.9" text-anchor="middle" font-size="7" fill="#6c6c80">7,5</text>
<polygon points="184.0,493.4 216.0,511.9 216.0,548.8 184.0,567.3 152.0,548.8 152.0,511.9" fill="#6b3d2c" stroke="#8b5d3c" stroke-width="1"/>
<text x="184.0" y="564.3" text-anchor="middle" font-size="7" fill="#6c6c80">8,0</text>
<polygon points="248.0,493.4 280.0,511.9 280.0,548.8 248.0,567.3 216.0,548.8 216.0,511.9" fill="#6b3d2c" stroke="#8b5d3c" stroke-width="1"/>
<text x="248.0" y="564.3" text-anchor="middle" font-size="7" fill="#6c6c80">8,1</text>
<polygon points="312.0,493.4 344.0,511.9 344.0,548.8 312.0,567.3 280.0,548.8 280.0,511.9" fill="#6b3d2c" stroke="#8b5d3c" stroke-width="1"/>
<text x="312.0" y="534.4" text-anchor="middle" font-size="11" fill="#ffd166">S</text>
<text x="312.0" y="564.3" text-anchor="middle" font-size="7" fill="#6c6c80">8,2</text>
<polygon points="376.0,493.4 408.0,511.9 408.0,548.8 376.0,567.3 344.0,548.8 344.0,511.9" fill="#6b3d2c" stroke="#8b5d3c" stroke-width="1"/>
<text x="376.0" y="534.4" text-anchor="middle" font-size="11" fill="#ffd166">P</text>
<text x="376.0" y="564.3" text-anchor="middle" font-size="7" fill="#6c6c80">8,3</text>
<polygon points="440.0,493.4 472.0,511.9 472.0,548.8 440.0,567.3 408.0,548.8 408.0,511.9" fill="#6b3d2c" stroke="#8b5d3c" stroke-width="1"/>
<text x="440.0" y="534.4" text-anchor="middle" font-size="11" fill="#ffd166">C</text>
<text x="440.0" y="564.3" text-anchor="middle" font-size="7" fill="#6c6c80">8,4</text>
<rect x="0" y="571" width="624" height="134" fill="#1a1a26"/>
<text x="20" y="591" font-size="13" font-weight="bold" fill="#e6e6f0">温度 -12°C / +8 &#160;&#160; 氧气 2% / 14% &#160;&#160; 海洋 5 / 9</text>
<text x="20" y="615" font-size="11"><tspan fill="#ff6b3d" font-weight="bold">P0</tspan> <tspan fill="#e6e6f0">Inventrix 发明者公司 TR22 30VP</tspan><tspan fill="#444"> | </tspan><tspan fill="#6dd47e" font-weight="bold">P2</tspan> <tspan fill="#e6e6f0">Mining Guild 矿业行会 TR27 29VP</tspan><tspan fill="#444"> | </tspan><tspan fill="#c39bd3" font-weight="bold">P3</tspan> <tspan fill="#e6e6f0">CrediCor 信用公司 TR23 29VP</tspan><tspan fill="#444"> | </tspan><tspan fill="#5dade2" font-weight="bold">P1</tspan> <tspan fill="#e6e6f0">Helion 氦能 TR25 26VP</tspan></text>
<rect x="20" y="630" width="10" height="10" fill="#2e86c1"/><text x="34" y="639" font-size="10" fill="#9c9cb0">海洋</text>
<rect x="100" y="630" width="10" height="10" fill="#58d68d"/><text x="114" y="639" font-size="10" fill="#9c9cb0">绿地</text>
<rect x="180" y="630" width="10" height="10" fill="#af7ac5"/><text x="194" y="639" font-size="10" fill="#9c9cb0">城市</text>
<rect x="260" y="630" width="10" height="10" fill="#6b2c1a"/><text x="274" y="639" font-size="10" fill="#9c9cb0">火山</text>
<rect x="340" y="630" width="10" height="10" fill="#ffd166"/><text x="354" y="639" font-size="10" fill="#9c9cb0">地块奖励</text>
</svg>